<mxfile host="Electron" agent="Mozilla/5.0 (Windows NT 10.0; Win64; x64) AppleWebKit/537.36 (KHTML, like Gecko) draw.io/24.7.17 Chrome/128.0.6613.36 Electron/32.0.1 Safari/537.36" version="24.7.17">
  <diagram name="Page-1" id="XwaHL1wTYq0SvJGbcDrk">
    <mxGraphModel dx="1594" dy="877" grid="0" gridSize="10" guides="1" tooltips="1" connect="1" arrows="1" fold="1" page="0" pageScale="1" pageWidth="850" pageHeight="1100" math="0" shadow="0">
      <root>
        <mxCell id="0" />
        <mxCell id="1" parent="0" />
        <mxCell id="BiBFrBMk8_A3g-fgAw8i-3" value="" style="rounded=1;whiteSpace=wrap;html=1;" vertex="1" parent="1">
          <mxGeometry x="86" y="517" width="262" height="334" as="geometry" />
        </mxCell>
        <mxCell id="T5dZUID9XhxYZPXr_We--13" value="" style="rounded=1;whiteSpace=wrap;html=1;" parent="1" vertex="1">
          <mxGeometry x="630" y="20" width="280" height="420" as="geometry" />
        </mxCell>
        <mxCell id="T5dZUID9XhxYZPXr_We--11" value="" style="rounded=1;whiteSpace=wrap;html=1;" parent="1" vertex="1">
          <mxGeometry x="280" y="20" width="280" height="408" as="geometry" />
        </mxCell>
        <mxCell id="T5dZUID9XhxYZPXr_We--9" value="" style="rounded=1;whiteSpace=wrap;html=1;" parent="1" vertex="1">
          <mxGeometry x="-133" y="40.5" width="340" height="367" as="geometry" />
        </mxCell>
        <mxCell id="T5dZUID9XhxYZPXr_We--1" value="Items list screen" style="rounded=1;whiteSpace=wrap;html=1;" parent="1" vertex="1">
          <mxGeometry x="-83" y="120.5" width="120" height="60" as="geometry" />
        </mxCell>
        <mxCell id="T5dZUID9XhxYZPXr_We--2" value="Item details screen" style="rounded=1;whiteSpace=wrap;html=1;" parent="1" vertex="1">
          <mxGeometry x="-83" y="270.5" width="120" height="60" as="geometry" />
        </mxCell>
        <mxCell id="T5dZUID9XhxYZPXr_We--3" value="Backend" style="rounded=1;whiteSpace=wrap;html=1;" parent="1" vertex="1">
          <mxGeometry x="710" y="250" width="120" height="60" as="geometry" />
        </mxCell>
        <mxCell id="T5dZUID9XhxYZPXr_We--4" value="Local DB" style="rounded=1;whiteSpace=wrap;html=1;" parent="1" vertex="1">
          <mxGeometry x="710" y="330" width="120" height="60" as="geometry" />
        </mxCell>
        <mxCell id="T5dZUID9XhxYZPXr_We--5" value="Backend API" style="rounded=1;whiteSpace=wrap;html=1;" parent="1" vertex="1">
          <mxGeometry x="360" y="160" width="120" height="60" as="geometry" />
        </mxCell>
        <mxCell id="T5dZUID9XhxYZPXr_We--6" value="Repository API" style="rounded=1;whiteSpace=wrap;html=1;" parent="1" vertex="1">
          <mxGeometry x="360" y="243" width="120" height="60" as="geometry" />
        </mxCell>
        <mxCell id="T5dZUID9XhxYZPXr_We--7" value="ItemsViewModel" style="rounded=1;whiteSpace=wrap;html=1;" parent="1" vertex="1">
          <mxGeometry x="17" y="160.5" width="120" height="60" as="geometry" />
        </mxCell>
        <mxCell id="T5dZUID9XhxYZPXr_We--8" value="DetailsViewModel" style="rounded=1;whiteSpace=wrap;html=1;" parent="1" vertex="1">
          <mxGeometry x="17" y="310.5" width="120" height="60" as="geometry" />
        </mxCell>
        <mxCell id="T5dZUID9XhxYZPXr_We--10" value="UI" style="text;html=1;align=center;verticalAlign=middle;whiteSpace=wrap;rounded=0;" parent="1" vertex="1">
          <mxGeometry x="7" y="60.5" width="60" height="30" as="geometry" />
        </mxCell>
        <mxCell id="T5dZUID9XhxYZPXr_We--12" value="Core" style="text;html=1;align=center;verticalAlign=middle;whiteSpace=wrap;rounded=0;" parent="1" vertex="1">
          <mxGeometry x="390" y="40" width="60" height="30" as="geometry" />
        </mxCell>
        <mxCell id="T5dZUID9XhxYZPXr_We--14" value="Services" style="text;html=1;align=center;verticalAlign=middle;whiteSpace=wrap;rounded=0;" parent="1" vertex="1">
          <mxGeometry x="740" y="40" width="60" height="30" as="geometry" />
        </mxCell>
        <mxCell id="T5dZUID9XhxYZPXr_We--15" value="Navigation" style="rounded=1;whiteSpace=wrap;html=1;" parent="1" vertex="1">
          <mxGeometry x="360" y="330" width="120" height="60" as="geometry" />
        </mxCell>
        <mxCell id="T5dZUID9XhxYZPXr_We--16" value="" style="endArrow=classic;html=1;rounded=0;" parent="1" source="T5dZUID9XhxYZPXr_We--9" target="T5dZUID9XhxYZPXr_We--11" edge="1">
          <mxGeometry width="50" height="50" relative="1" as="geometry">
            <mxPoint x="220" y="600" as="sourcePoint" />
            <mxPoint x="270" y="550" as="targetPoint" />
          </mxGeometry>
        </mxCell>
        <mxCell id="T5dZUID9XhxYZPXr_We--17" value="" style="endArrow=classic;html=1;rounded=0;" parent="1" source="T5dZUID9XhxYZPXr_We--13" target="T5dZUID9XhxYZPXr_We--11" edge="1">
          <mxGeometry width="50" height="50" relative="1" as="geometry">
            <mxPoint x="570" y="570" as="sourcePoint" />
            <mxPoint x="620" y="520" as="targetPoint" />
          </mxGeometry>
        </mxCell>
        <mxCell id="T5dZUID9XhxYZPXr_We--18" value="Models" style="rounded=1;whiteSpace=wrap;html=1;" parent="1" vertex="1">
          <mxGeometry x="360" y="80" width="120" height="60" as="geometry" />
        </mxCell>
        <mxCell id="T5dZUID9XhxYZPXr_We--19" value="DTO" style="rounded=1;whiteSpace=wrap;html=1;" parent="1" vertex="1">
          <mxGeometry x="710" y="80" width="120" height="60" as="geometry" />
        </mxCell>
        <mxCell id="T5dZUID9XhxYZPXr_We--20" value="Converters" style="rounded=1;whiteSpace=wrap;html=1;" parent="1" vertex="1">
          <mxGeometry x="710" y="160" width="120" height="60" as="geometry" />
        </mxCell>
        <mxCell id="BiBFrBMk8_A3g-fgAw8i-1" value="GetItemsUseCase" style="rounded=1;whiteSpace=wrap;html=1;" vertex="1" parent="1">
          <mxGeometry x="149" y="670" width="120" height="60" as="geometry" />
        </mxCell>
        <mxCell id="BiBFrBMk8_A3g-fgAw8i-2" value="GetItemDetailsUseCase" style="rounded=1;whiteSpace=wrap;html=1;" vertex="1" parent="1">
          <mxGeometry x="131.5" y="759" width="155" height="60" as="geometry" />
        </mxCell>
        <mxCell id="BiBFrBMk8_A3g-fgAw8i-4" value="UseCases" style="text;html=1;align=center;verticalAlign=middle;whiteSpace=wrap;rounded=0;" vertex="1" parent="1">
          <mxGeometry x="179" y="540" width="60" height="30" as="geometry" />
        </mxCell>
        <mxCell id="BiBFrBMk8_A3g-fgAw8i-5" value="" style="endArrow=classic;html=1;rounded=0;" edge="1" parent="1" source="T5dZUID9XhxYZPXr_We--9" target="BiBFrBMk8_A3g-fgAw8i-3">
          <mxGeometry width="50" height="50" relative="1" as="geometry">
            <mxPoint x="-150" y="630" as="sourcePoint" />
            <mxPoint x="-100" y="580" as="targetPoint" />
          </mxGeometry>
        </mxCell>
        <mxCell id="BiBFrBMk8_A3g-fgAw8i-6" value="" style="endArrow=classic;html=1;rounded=0;" edge="1" parent="1" source="BiBFrBMk8_A3g-fgAw8i-3" target="T5dZUID9XhxYZPXr_We--11">
          <mxGeometry width="50" height="50" relative="1" as="geometry">
            <mxPoint x="460" y="630" as="sourcePoint" />
            <mxPoint x="510" y="580" as="targetPoint" />
          </mxGeometry>
        </mxCell>
        <mxCell id="BiBFrBMk8_A3g-fgAw8i-7" value="CachingUseCase" style="rounded=1;whiteSpace=wrap;html=1;" vertex="1" parent="1">
          <mxGeometry x="149" y="581" width="120" height="60" as="geometry" />
        </mxCell>
      </root>
    </mxGraphModel>
  </diagram>
</mxfile>
